<svg version="1.1" id="Layer_1" xmlns="http://www.w3.org/2000/svg" xmlns:xlink="http://www.w3.org/1999/xlink" x="0px" y="0px"
	 width="100%" viewBox="0 0 1080 540" enable-background="new 0 0 1080 540" xml:space="preserve">
<path fill="none" opacity="0" stroke="none" 
	d="
M636.000000,541.000000 
	C424.000061,541.000000 212.500122,541.000000 1.000142,541.000000 
	C1.000095,361.000122 1.000095,181.000229 1.000047,1.000262 
	C360.999756,1.000175 720.999512,1.000175 1080.999512,1.000087 
	C1080.999634,180.999710 1080.999634,360.999420 1080.999756,540.999573 
	C932.833313,541.000000 784.666687,541.000000 636.000000,541.000000 
M68.148354,349.480438 
	C68.408447,349.674164 68.668549,349.867859 68.916801,350.802490 
	C69.307915,351.888611 69.510185,353.095917 70.117905,354.043060 
	C83.335014,374.642792 102.027863,386.778229 126.466736,388.885803 
	C151.039612,391.004944 173.501312,383.828430 194.146103,370.880890 
	C210.287262,360.757843 224.582108,348.425934 236.511398,333.441925 
	C237.328888,332.415131 239.605698,331.778442 240.955002,332.078644 
	C247.231735,333.475037 253.341995,335.765015 259.665283,336.762543 
	C265.088593,337.618103 270.803497,337.607544 275.485687,334.502289 
	C272.528687,328.542236 269.765411,322.972687 266.999756,317.412598 
	C253.812027,324.334320 247.816727,323.841644 227.574677,314.256989 
	C219.340607,322.733795 211.498749,331.518127 202.909897,339.498535 
	C185.825119,355.373016 166.026031,366.585846 143.132294,371.798859 
	C127.250847,375.415100 111.572296,374.923065 96.188515,368.959991 
	C85.539902,364.832306 77.046059,357.776642 68.837700,349.491730 
	C68.558472,349.327820 68.279243,349.163910 67.918884,348.684753 
	C67.822266,348.630127 67.725639,348.575500 67.629013,348.520874 
	C67.752678,348.680573 67.876335,348.840302 68.148354,349.480438 
M235.937637,146.606277 
	C235.817001,146.560928 235.696365,146.515579 235.575729,146.470230 
	C235.703873,146.657852 235.832001,146.845474 236.249313,147.632980 
	C254.470245,163.880997 261.878021,185.066849 263.434875,209.326691 
	C266.351562,207.243744 268.374329,205.489456 270.667816,204.227081 
	C275.169464,201.749344 276.094421,198.683212 274.477417,193.635773 
	C270.353333,180.762390 264.258636,168.980103 254.638657,159.618301 
	C249.344360,154.466080 242.302078,151.110046 235.937637,146.606277 
M930.931458,155.614746 
	C930.811340,155.572250 930.691284,155.529755 930.571167,155.487244 
	C930.700134,155.669846 930.829102,155.852448 931.267395,156.746033 
	C931.344299,158.500748 931.930725,160.425583 931.411255,161.981186 
	C928.947693,169.359665 926.804688,176.941452 923.407654,183.893890 
	C913.341431,204.495880 902.733398,224.833023 892.354553,245.282532 
	C891.514221,246.938309 890.807251,248.661743 889.885132,250.690765 
	C894.845032,250.690765 898.921692,250.825317 902.979309,250.606491 
	C904.155212,250.543076 905.628174,249.744614 906.366638,248.810211 
	C911.689758,242.074600 917.622192,235.663879 921.925110,228.309784 
	C932.241089,210.679077 941.797302,192.593369 947.153931,172.678955 
	C947.686462,170.699173 948.331604,167.315399 947.398010,166.613480 
	C942.207886,162.711105 936.546204,159.435883 930.931458,155.614746 
M450.195740,340.184143 
	C450.345978,340.323334 450.496185,340.462494 450.219147,341.109375 
	C439.283844,351.811432 427.922455,362.118591 417.534088,373.327545 
	C407.321808,384.346527 402.047546,397.519958 403.846069,413.064484 
	C405.467072,427.074982 414.295929,438.003235 428.000610,440.699066 
	C440.358643,443.129974 451.761078,440.889221 461.258270,431.663391 
	C469.551819,423.606842 474.797699,413.850159 476.906799,402.732819 
	C480.374084,384.456116 483.055054,366.030457 486.087921,347.670990 
	C487.952332,336.384796 499.252716,325.295105 510.763306,323.549744 
	C512.706665,334.940399 518.550598,343.073914 530.571228,344.847778 
	C542.251282,346.571442 553.070068,343.985352 562.362183,336.329895 
	C564.847717,334.282196 567.195740,332.067719 570.001648,329.579803 
	C571.488708,336.861572 576.402100,339.874054 582.374878,341.045898 
	C587.052856,341.963654 591.935913,342.272217 596.712158,342.163269 
	C606.986389,341.928925 607.971497,341.176514 608.776184,331.205475 
	C610.713928,307.196533 622.136902,286.916565 633.966492,266.881622 
	C636.250610,263.013275 640.786377,260.222809 644.783203,257.739288 
	C646.417603,256.723724 649.924866,257.086029 651.550537,258.254211 
	C652.677124,259.063843 652.714172,262.549561 652.074524,264.447357 
	C649.852295,271.040497 647.190430,277.490112 644.571106,283.943726 
	C639.431213,296.607788 634.559937,309.352997 634.998352,323.333984 
	C635.434998,337.261719 643.757690,345.362122 657.656616,346.030884 
	C669.588745,346.605011 679.374451,342.083252 687.698608,333.909851 
	C690.834351,330.830933 693.786621,327.565277 697.134766,324.057709 
	C701.117004,334.209167 707.267212,341.378906 717.671143,344.066528 
	C729.653992,347.161987 739.957092,343.221649 749.431091,336.304596 
	C753.971863,332.989288 758.185730,329.226074 762.584167,325.635925 
	C769.164001,339.453705 779.482483,343.815033 793.406128,338.749359 
	C802.050842,335.604218 809.258484,330.405090 815.090942,323.293121 
	C816.078857,322.088531 817.091736,320.904388 818.254517,319.518402 
	C819.933655,323.933136 821.169556,327.728912 822.795044,331.349823 
	C826.990540,340.695801 834.176941,345.699371 844.552490,346.179352 
	C853.435242,346.590240 860.842957,343.499268 866.995605,337.288239 
	C870.930969,333.315582 874.653870,329.132416 878.110413,325.430817 
	C882.182800,330.121429 885.552734,335.242828 890.070190,338.975372 
	C904.051819,350.527618 926.392578,349.601471 942.346680,337.101929 
	C959.728333,323.483826 967.010010,304.863586 969.093750,283.408569 
	C970.924683,264.556976 969.678345,245.114594 978.930176,227.526306 
	C965.640015,221.886627 953.533875,223.016632 942.597656,232.065582 
	C938.249084,235.663712 934.169800,239.621048 930.225952,243.666367 
	C924.764038,249.268967 919.397095,254.980316 914.276062,260.893280 
	C910.946045,264.738281 907.105530,265.818146 902.310669,264.828796 
	C894.972961,263.314789 890.221680,266.307831 886.286072,272.701691 
	C878.803528,284.857941 870.698425,296.643768 862.487732,308.327576 
	C860.970154,310.487122 857.735840,311.440186 855.293823,312.950073 
	C854.661072,310.058868 852.889587,306.845490 853.600098,304.334259 
	C856.167236,295.260437 858.803833,286.063782 862.792969,277.560333 
	C877.379395,246.467010 892.568726,215.657028 907.418701,184.686508 
	C910.819092,177.594864 913.771729,170.288544 916.904236,163.140778 
	C907.134827,158.361893 898.393127,157.798630 883.712891,159.787186 
	C878.385559,160.508835 874.868225,162.696487 872.542480,167.548126 
	C861.430176,190.729630 849.506958,213.548691 839.161316,237.063858 
	C829.252686,259.585693 820.616150,282.644958 804.894226,302.040955 
	C803.228027,304.096497 801.407959,306.064301 799.441223,307.830017 
	C796.934814,310.080292 795.030518,309.201263 794.647522,306.048615 
	C794.271667,302.955139 794.301025,299.781952 794.459778,296.659393 
	C795.111755,283.832642 799.739197,272.031158 804.422974,260.327393 
	C806.474182,255.201797 805.559448,251.203156 801.183044,248.699326 
	C795.600769,245.505600 790.613831,242.136261 787.561462,236.171707 
	C786.730286,234.547516 784.175781,233.550964 782.208252,232.802307 
	C765.067505,226.280136 748.798950,228.048187 735.223755,240.554535 
	C725.112122,249.869965 716.027893,260.419067 707.299744,271.084595 
	C698.466980,281.877838 690.722961,293.556793 682.290710,304.687653 
	C680.587341,306.936188 677.937622,308.467804 675.724182,310.329926 
	C675.277588,310.130951 674.830933,309.931946 674.384338,309.732941 
	C674.384338,307.699799 673.965637,305.558075 674.459534,303.652954 
	C676.244263,296.769165 678.351501,289.969421 680.307983,283.129669 
	C683.035583,273.594635 686.841309,264.205963 688.196045,254.477585 
	C690.328247,239.165985 682.743652,230.643311 667.463867,228.648270 
	C657.588562,227.358871 648.395935,229.765991 640.674622,233.136276 
	C637.677368,231.439194 635.562622,229.270767 633.343079,229.157623 
	C624.932251,228.728821 616.487549,228.950058 608.055481,228.960968 
	C604.204529,228.965942 602.420349,231.196991 600.860657,234.604507 
	C592.440918,252.999115 583.943359,271.365204 575.027222,289.522430 
	C570.609497,298.518799 563.414734,305.295227 554.793335,310.423279 
	C553.051880,311.459137 551.020264,312.007080 548.733032,312.938507 
	C546.568298,305.516479 548.857971,299.238037 551.513000,293.559845 
	C558.950562,277.653381 566.940918,261.999329 574.980164,246.383179 
	C578.387634,239.764359 577.208496,233.981842 570.700439,232.402161 
	C563.647766,230.690262 556.345825,229.927917 549.116089,229.053436 
	C545.239380,228.584564 542.460999,230.589432 540.814514,234.165573 
	C538.594116,238.988312 536.356567,243.804413 534.039612,248.581268 
	C525.413025,266.367126 517.149292,284.378296 504.313202,299.700500 
	C502.129730,302.306824 499.389435,304.446625 496.906372,306.801971 
	C496.421814,304.584656 496.878967,303.058075 497.445862,301.573364 
	C501.999603,289.647125 506.803009,277.809875 511.064056,265.780365 
	C514.048401,257.355133 512.917358,254.596039 505.638000,249.393036 
	C503.644073,247.967880 501.150574,247.257797 499.070465,245.930939 
	C497.836670,245.143982 496.309113,243.933853 496.037201,242.671890 
	C494.682373,236.384186 490.500488,232.987656 484.828491,231.092987 
	C474.662811,227.697250 464.485870,228.420273 454.448029,231.647934 
	C440.780853,236.042603 430.481171,244.966171 421.937653,256.213623 
	C409.154327,273.042694 396.393921,289.890778 383.409546,306.563965 
	C381.336243,309.226257 378.144989,311.017944 375.470581,313.212158 
	C375.028442,312.909393 374.586304,312.606659 374.144165,312.303925 
	C374.011292,310.565308 373.414856,308.707520 373.825897,307.108734 
	C375.598206,300.214905 376.786133,292.977783 379.807343,286.637909 
	C386.292542,273.028931 393.639526,259.820465 400.911255,246.600677 
	C404.804596,239.522766 403.110352,234.108017 395.408661,232.060989 
	C390.453522,230.744003 385.368683,229.632187 380.275146,229.178192 
	C369.919250,228.255173 369.005768,229.229736 364.994904,238.639740 
	C358.753326,253.283356 352.621490,267.997528 345.675781,282.309418 
	C340.536041,292.899994 333.047791,301.913391 322.610474,307.938934 
	C317.943970,310.632965 314.441162,308.764526 314.736908,303.433228 
	C314.961609,299.383545 315.748077,295.008514 317.603516,291.469818 
	C324.308167,278.682831 331.594269,266.201477 338.610657,253.576874 
	C341.713837,247.993469 341.122955,244.604309 336.323273,240.361679 
	C330.272614,235.013214 322.956818,232.277771 315.147705,231.119492 
	C310.468567,230.425461 307.742218,228.491409 306.229309,223.892685 
	C301.571991,209.736084 290.703094,206.508972 278.701385,215.499146 
	C270.156464,221.899918 264.933624,230.689194 260.997498,240.378357 
	C254.126465,257.292114 247.290970,274.220337 240.393173,291.123169 
	C234.974716,304.400940 235.464005,304.981110 249.790848,307.341919 
	C254.918625,308.186890 257.923157,306.737061 260.466827,302.430450 
	C264.439209,295.704956 268.752106,289.176178 273.053558,282.651611 
	C274.880066,279.881134 276.673065,276.868469 279.193726,274.859985 
	C280.661102,273.690796 283.682251,273.719757 285.748657,274.234955 
	C288.660492,274.960907 287.751556,277.338562 287.043060,279.523834 
	C285.099152,285.519196 283.077942,291.508667 281.551361,297.616425 
	C277.646362,313.239990 284.455811,328.169403 298.326965,332.003510 
	C304.611145,333.740540 311.993195,333.462128 318.445129,332.080444 
	C324.777283,330.724304 330.561340,326.808838 336.500641,324.056091 
	C340.048889,337.567291 345.847198,343.573303 357.090485,344.985748 
	C369.752045,346.576385 380.727875,342.977966 390.217224,334.485779 
	C394.283142,330.847107 398.551849,327.435059 402.577240,324.047272 
	C402.701538,324.336670 403.314453,325.832489 403.980896,327.304077 
	C409.294037,339.036285 422.093536,346.771667 434.218658,344.789673 
	C439.531647,343.921204 444.587402,341.478821 450.195740,340.184143 
M206.591690,147.805435 
	C189.464813,143.556763 172.885696,145.630463 156.915619,152.627914 
	C120.581535,168.548004 95.963928,196.277985 78.919296,231.289978 
	C66.855873,256.069885 61.259621,282.210327 66.163132,309.668671 
	C70.314468,332.915070 82.681259,350.212860 106.134468,357.423492 
	C122.736130,362.527649 139.124603,359.800995 154.880402,353.495270 
	C181.148315,342.982391 201.625061,324.986328 217.896606,302.256683 
	C239.923553,271.487366 253.211090,237.753647 247.888336,199.142014 
	C244.501755,174.575623 232.505875,155.833771 206.591690,147.805435 
M809.964111,346.370880 
	C807.304382,347.751373 804.710754,349.282043 801.973633,350.486633 
	C789.281860,356.072205 776.531799,357.158844 764.306396,349.528168 
	C760.368103,347.070038 757.826538,347.651733 754.227844,350.040009 
	C735.816040,362.259064 714.037842,362.319946 698.879883,350.045258 
	C695.634949,347.417633 693.683289,347.137726 690.489441,349.650452 
	C680.243713,357.711182 668.494812,361.164642 655.499756,359.978943 
	C644.502075,358.975555 634.770935,355.322113 628.193176,345.779846 
	C626.302368,343.036865 624.633362,340.141052 622.491394,336.722748 
	C620.627197,346.826111 615.680786,354.291046 606.119324,355.419525 
	C596.846069,356.514008 586.664795,357.010620 578.013489,354.238953 
	C569.729553,351.585022 563.724121,352.889740 556.188477,355.635345 
	C537.704102,362.370087 519.967102,361.668060 505.412811,345.978088 
	C504.683472,345.191833 503.655090,344.682953 502.263855,343.684631 
	C501.397125,345.764069 500.366180,347.330994 500.101715,349.018097 
	C498.307007,360.466156 496.650055,371.936188 494.994781,383.405731 
	C492.856079,398.225311 490.420227,412.968628 482.891998,426.248047 
	C470.466797,448.165466 448.993835,461.232147 423.360138,453.801422 
	C415.479736,451.517029 408.370087,446.573669 401.439148,443.113342 
	C401.321167,442.679321 401.399841,443.655396 401.827393,444.441803 
	C412.973389,464.943146 433.998230,473.774292 455.654205,470.505310 
	C479.016083,466.978882 493.031464,451.733459 501.852142,430.940125 
	C509.279633,413.431000 509.951569,394.492401 512.989990,376.061493 
	C513.675232,371.905060 514.216614,367.724854 514.873169,363.219696 
	C516.233948,363.781342 516.935913,363.903595 517.420044,364.295258 
	C531.748352,375.886139 547.749512,377.331116 564.876038,372.241699 
	C569.674194,370.815918 587.865479,370.332550 592.596252,370.892578 
	C607.957031,372.710724 623.382568,374.452484 634.290405,359.626740 
	C634.426514,359.441711 634.901978,359.506348 635.303955,359.440552 
	C642.212219,367.812561 651.001648,373.582428 661.778687,374.831512 
	C676.486206,376.536163 690.666626,374.507568 703.148438,365.437897 
	C704.205200,364.669983 706.726257,364.675354 707.841919,365.415131 
	C727.256592,378.288788 746.744751,376.743408 766.170593,365.739105 
	C769.358032,363.933502 771.691528,364.262817 774.954773,365.305450 
	C781.340271,367.345612 787.952026,369.344513 794.578918,369.808868 
	C804.978027,370.537445 814.321228,366.202118 823.337585,361.125580 
	C824.025574,361.682159 824.730530,362.131836 825.287903,362.721069 
	C840.241028,378.527893 866.951477,379.161896 884.015442,367.180298 
	C887.297668,364.875610 889.519653,364.627808 892.850037,366.843109 
	C908.754272,377.422119 926.234070,378.819244 943.954590,373.367493 
	C968.364807,365.857635 982.904297,347.880310 992.188599,324.920715 
	C998.677673,308.873535 998.496094,291.824493 999.993713,275.022461 
	C1001.077576,262.862885 1002.828064,250.986191 1010.464539,240.767044 
	C1013.408691,236.827271 1015.602600,232.326920 1018.699585,227.142426 
	C1012.320801,225.601196 1006.784912,224.150696 1001.184998,223.015656 
	C1000.187683,222.813492 998.483459,223.601318 997.853943,224.472687 
	C992.164185,232.347824 987.238342,240.707581 986.107300,250.546738 
	C984.499573,264.533234 983.810730,278.634430 981.925110,292.577881 
	C978.504395,317.873657 966.955688,338.471497 944.956482,352.354736 
	C925.706238,364.503204 899.207336,363.925690 882.513428,350.817017 
	C878.516113,347.678162 875.935730,347.835571 872.276489,351.129272 
	C858.279480,363.727936 829.621948,364.115845 815.916138,347.167358 
	C815.013184,346.050781 812.397644,346.319092 809.964111,346.370880 
M605.141113,144.579315 
	C605.141113,141.465546 605.141113,138.351776 605.141113,135.238007 
	C611.262939,144.903503 616.013367,154.756027 621.156189,164.399261 
	C622.172607,166.305115 624.690613,168.543243 626.530823,168.556244 
	C628.351013,168.569092 630.899292,166.334549 631.898987,164.437943 
	C636.539978,155.633102 640.742920,146.597763 645.138672,137.662643 
	C645.564819,136.796432 646.238342,136.051941 647.364136,134.437988 
	C647.364136,139.016556 647.305664,142.505020 647.376709,145.990829 
	C647.512085,152.639572 647.438965,159.315613 648.112061,165.913025 
	C648.266968,167.431702 651.235718,169.916580 652.643738,169.747223 
	C654.542114,169.518890 656.371521,167.314209 657.841187,165.619949 
	C658.425598,164.946167 657.983459,163.369141 657.983765,162.203339 
	C657.987671,146.542328 657.950623,130.881165 658.015747,115.220421 
	C658.030273,111.718773 658.005371,108.185173 653.798157,107.292381 
	C649.865479,106.457863 648.379700,109.565727 646.929871,112.498413 
	C640.968384,124.557503 634.959290,136.593063 628.946472,148.626678 
	C628.326233,149.868011 627.564880,151.038879 626.643799,152.632095 
	C625.679138,150.889725 624.998718,149.753189 624.404480,148.573273 
	C618.131042,136.117752 612.013489,123.579605 605.458130,111.274559 
	C604.449463,109.381264 601.237061,107.293457 599.422180,107.592468 
	C597.691467,107.877617 595.231384,111.140450 595.193420,113.134308 
	C594.866516,130.288239 594.981812,147.451385 595.053833,164.611435 
	C595.067444,167.858566 596.687195,170.022049 600.208984,170.028641 
	C603.799622,170.035355 605.159119,167.922623 605.140869,164.549683 
	C605.106506,158.218872 605.137329,151.887711 605.141113,144.579315 
M352.290131,358.555237 
	C344.223297,356.836517 337.388153,353.011780 332.085571,346.629669 
	C330.169891,344.324005 328.167206,344.199890 325.112122,344.628082 
	C316.287750,345.864868 307.189697,347.546936 298.492462,346.534485 
	C291.528320,345.723755 284.993286,341.227173 278.286102,338.374146 
	C279.894928,343.826538 283.939941,348.422913 288.491730,352.720337 
	C300.049255,363.631897 314.440643,363.072449 328.497711,361.586395 
	C334.960602,360.903198 339.297333,361.196075 344.830505,365.521637 
	C361.708405,378.716003 385.267090,377.477051 402.447479,366.901581 
	C406.639374,364.321259 409.897003,360.223175 413.922455,356.510956 
	C409.076294,352.920319 405.471283,349.980347 401.563629,347.521271 
	C400.421600,346.802582 397.914276,346.792297 396.885651,347.576324 
	C383.847626,357.514160 369.166534,360.730896 352.290131,358.555237 
M701.464233,119.024376 
	C696.474670,126.153679 694.986206,134.032333 695.819214,142.638214 
	C697.052307,155.376434 704.901428,165.441605 717.154907,169.330475 
	C730.100342,173.438965 744.267029,169.696762 752.113220,160.096085 
	C763.567139,146.081009 762.078857,124.925705 748.859558,113.845291 
	C735.143555,102.348557 714.181824,104.412788 701.464233,119.024376 
M510.884766,167.746323 
	C512.286316,168.257858 513.671326,168.821136 515.091919,169.272873 
	C528.284424,173.468018 542.774658,169.371994 550.723877,159.220459 
	C559.064758,148.568787 559.993591,132.796707 552.957764,121.287979 
	C545.988831,109.888664 532.166870,104.252617 518.245911,107.133881 
	C505.707520,109.728996 495.772430,119.860382 493.958069,131.901627 
	C491.548645,147.891739 497.128723,160.030502 510.884766,167.746323 
M438.671356,147.896347 
	C439.910187,149.399078 441.296478,150.804855 442.360199,152.422729 
	C445.551971,157.277405 448.535339,162.270035 451.764740,167.098694 
	C453.617584,169.869110 456.335510,171.273666 459.470642,169.393036 
	C462.784424,167.405243 462.278870,164.551544 460.457733,161.646088 
	C457.050903,156.210861 453.712494,150.732773 450.290131,145.182495 
	C450.997894,144.583542 451.464111,144.121063 451.994507,143.750381 
	C459.672668,138.384552 461.619568,130.752808 459.654907,122.194214 
	C457.712830,113.734001 451.884552,108.715935 443.257721,107.676231 
	C438.000763,107.042664 432.639221,107.156593 427.324585,107.154213 
	C421.551422,107.151627 420.233124,108.474854 420.213654,114.231094 
	C420.157867,130.717941 420.226685,147.205231 420.165741,163.692062 
	C420.152252,167.344910 421.112549,170.080627 425.313385,170.037994 
	C429.528503,169.995255 430.418274,167.167557 430.357361,163.566040 
	C430.268463,158.307785 430.334503,153.046921 430.334503,147.537903 
	C433.287048,147.537903 435.573364,147.537903 438.671356,147.896347 
M383.382416,118.334129 
	C380.318970,112.240074 375.415222,108.470787 368.656128,107.790199 
	C362.892670,107.209877 357.059692,107.178841 351.257080,107.169769 
	C345.867523,107.161339 344.262360,108.918190 344.248047,114.496483 
	C344.206604,130.638474 344.246735,146.780624 344.222412,162.922684 
	C344.216888,166.567398 344.897827,169.809143 349.324951,170.017120 
	C354.246857,170.248352 354.799072,166.564941 354.904205,162.907562 
	C355.032349,158.449860 354.934692,153.985672 354.934692,149.540512 
	C380.448517,149.025970 390.298523,138.427338 383.382416,118.334129 
M405.283203,216.840256 
	C405.651276,209.926865 404.538452,208.324677 398.298981,207.207520 
	C393.907837,206.421295 389.501068,205.690674 385.076508,205.131332 
	C380.288635,204.526031 377.731628,206.436478 376.884064,210.936157 
	C375.967957,215.799698 377.648895,218.996536 382.178375,220.014893 
	C387.333130,221.173874 392.554840,222.162857 397.800812,222.743774 
	C401.402985,223.142670 404.257751,221.536041 405.283203,216.840256 
M560.487976,219.045609 
	C564.076050,219.679428 567.647034,220.443359 571.256287,220.915543 
	C576.252258,221.569122 579.259094,219.502823 580.081421,215.131958 
	C581.052917,209.968170 579.477051,207.111618 574.322510,205.890335 
	C569.338440,204.709442 564.260803,203.725082 559.169128,203.266312 
	C555.733887,202.956787 552.827148,204.252563 551.757324,208.353104 
	C550.101196,214.700836 551.768738,217.161835 560.487976,219.045609 
z"/>
<path fill="none" opacity="0" stroke="none" 
	d="
M449.759949,339.751099 
	C444.587402,341.478821 439.531647,343.921204 434.218658,344.789673 
	C422.093536,346.771667 409.294037,339.036285 403.980896,327.304077 
	C403.314453,325.832489 402.701538,324.336670 402.577240,324.047272 
	C398.551849,327.435059 394.283142,330.847107 390.217224,334.485779 
	C380.727875,342.977966 369.752045,346.576385 357.090485,344.985748 
	C345.847198,343.573303 340.048889,337.567291 336.500641,324.056091 
	C330.561340,326.808838 324.777283,330.724304 318.445129,332.080444 
	C311.993195,333.462128 304.611145,333.740540 298.326965,332.003510 
	C284.455811,328.169403 277.646362,313.239990 281.551361,297.616425 
	C283.077942,291.508667 285.099152,285.519196 287.043060,279.523834 
	C287.751556,277.338562 288.660492,274.960907 285.748657,274.234955 
	C283.682251,273.719757 280.661102,273.690796 279.193726,274.859985 
	C276.673065,276.868469 274.880066,279.881134 273.053558,282.651611 
	C268.752106,289.176178 264.439209,295.704956 260.466827,302.430450 
	C257.923157,306.737061 254.918625,308.186890 249.790848,307.341919 
	C235.464005,304.981110 234.974716,304.400940 240.393173,291.123169 
	C247.290970,274.220337 254.126465,257.292114 260.997498,240.378357 
	C264.933624,230.689194 270.156464,221.899918 278.701385,215.499146 
	C290.703094,206.508972 301.571991,209.736084 306.229309,223.892685 
	C307.742218,228.491409 310.468567,230.425461 315.147705,231.119492 
	C322.956818,232.277771 330.272614,235.013214 336.323273,240.361679 
	C341.122955,244.604309 341.713837,247.993469 338.610657,253.576874 
	C331.594269,266.201477 324.308167,278.682831 317.603516,291.469818 
	C315.748077,295.008514 314.961609,299.383545 314.736908,303.433228 
	C314.441162,308.764526 317.943970,310.632965 322.610474,307.938934 
	C333.047791,301.913391 340.536041,292.899994 345.675781,282.309418 
	C352.621490,267.997528 358.753326,253.283356 364.994904,238.639740 
	C369.005768,229.229736 369.919250,228.255173 380.275146,229.178192 
	C385.368683,229.632187 390.453522,230.744003 395.408661,232.060989 
	C403.110352,234.108017 404.804596,239.522766 400.911255,246.600677 
	C393.639526,259.820465 386.292542,273.028931 379.807343,286.637909 
	C376.786133,292.977783 375.598206,300.214905 373.825897,307.108734 
	C373.414856,308.707520 374.011292,310.565308 374.144165,312.303925 
	C374.586304,312.606659 375.028442,312.909393 375.470581,313.212158 
	C378.144989,311.017944 381.336243,309.226257 383.409546,306.563965 
	C396.393921,289.890778 409.154327,273.042694 421.937653,256.213623 
	C430.481171,244.966171 440.780853,236.042603 454.448029,231.647934 
	C464.485870,228.420273 474.662811,227.697250 484.828491,231.092987 
	C490.500488,232.987656 494.682373,236.384186 496.037201,242.671890 
	C496.309113,243.933853 497.836670,245.143982 499.070465,245.930939 
	C501.150574,247.257797 503.644073,247.967880 505.638000,249.393036 
	C512.917358,254.596039 514.048401,257.355133 511.064056,265.780365 
	C506.803009,277.809875 501.999603,289.647125 497.445862,301.573364 
	C496.878967,303.058075 496.421814,304.584656 496.906372,306.801971 
	C499.389435,304.446625 502.129730,302.306824 504.313202,299.700500 
	C517.149292,284.378296 525.413025,266.367126 534.039612,248.581268 
	C536.356567,243.804413 538.594116,238.988312 540.814514,234.165573 
	C542.460999,230.589432 545.239380,228.584564 549.116089,229.053436 
	C556.345825,229.927917 563.647766,230.690262 570.700439,232.402161 
	C577.208496,233.981842 578.387634,239.764359 574.980164,246.383179 
	C566.940918,261.999329 558.950562,277.653381 551.513000,293.559845 
	C548.857971,299.238037 546.568298,305.516479 548.733032,312.938507 
	C551.020264,312.007080 553.051880,311.459137 554.793335,310.423279 
	C563.414734,305.295227 570.609497,298.518799 575.027222,289.522430 
	C583.943359,271.365204 592.440918,252.999115 600.860657,234.604507 
	C602.420349,231.196991 604.204529,228.965942 608.055481,228.960968 
	C616.487549,228.950058 624.932251,228.728821 633.343079,229.157623 
	C635.562622,229.270767 637.677368,231.439194 640.674622,233.136276 
	C648.395935,229.765991 657.588562,227.358871 667.463867,228.648270 
	C682.743652,230.643311 690.328247,239.165985 688.196045,254.477585 
	C686.841309,264.205963 683.035583,273.594635 680.307983,283.129669 
	C678.351501,289.969421 676.244263,296.769165 674.459534,303.652954 
	C673.965637,305.558075 674.384338,307.699799 674.384338,309.732941 
	C674.830933,309.931946 675.277588,310.130951 675.724182,310.329926 
	C677.937622,308.467804 680.587341,306.936188 682.290710,304.687653 
	C690.722961,293.556793 698.466980,281.877838 707.299744,271.084595 
	C716.027893,260.419067 725.112122,249.869965 735.223755,240.554535 
	C748.798950,228.048187 765.067505,226.280136 782.208252,232.802307 
	C784.175781,233.550964 786.730286,234.547516 787.561462,236.171707 
	C790.613831,242.136261 795.600769,245.505600 801.183044,248.699326 
	C805.559448,251.203156 806.474182,255.201797 804.422974,260.327393 
	C799.739197,272.031158 795.111755,283.832642 794.459778,296.659393 
	C794.301025,299.781952 794.271667,302.955139 794.647522,306.048615 
	C795.030518,309.201263 796.934814,310.080292 799.441223,307.830017 
	C801.407959,306.064301 803.228027,304.096497 804.894226,302.040955 
	C820.616150,282.644958 829.252686,259.585693 839.161316,237.063858 
	C849.506958,213.548691 861.430176,190.729630 872.542480,167.548126 
	C874.868225,162.696487 878.385559,160.508835 883.712891,159.787186 
	C898.393127,157.798630 907.134827,158.361893 916.904236,163.140778 
	C913.771729,170.288544 910.819092,177.594864 907.418701,184.686508 
	C892.568726,215.657028 877.379395,246.467010 862.792969,277.560333 
	C858.803833,286.063782 856.167236,295.260437 853.600098,304.334259 
	C852.889587,306.845490 854.661072,310.058868 855.293823,312.950073 
	C857.735840,311.440186 860.970154,310.487122 862.487732,308.327576 
	C870.698425,296.643768 878.803528,284.857941 886.286072,272.701691 
	C890.221680,266.307831 894.972961,263.314789 902.310669,264.828796 
	C907.105530,265.818146 910.946045,264.738281 914.276062,260.893280 
	C919.397095,254.980316 924.764038,249.268967 930.225952,243.666367 
	C934.169800,239.621048 938.249084,235.663712 942.597656,232.065582 
	C953.533875,223.016632 965.640015,221.886627 978.930176,227.526306 
	C969.678345,245.114594 970.924683,264.556976 969.093750,283.408569 
	C967.010010,304.863586 959.728333,323.483826 942.346680,337.101929 
	C926.392578,349.601471 904.051819,350.527618 890.070190,338.975372 
	C885.552734,335.242828 882.182800,330.121429 878.110413,325.430817 
	C874.653870,329.132416 870.930969,333.315582 866.995605,337.288239 
	C860.842957,343.499268 853.435242,346.590240 844.552490,346.179352 
	C834.176941,345.699371 826.990540,340.695801 822.795044,331.349823 
	C821.169556,327.728912 819.933655,323.933136 818.254517,319.518402 
	C817.091736,320.904388 816.078857,322.088531 815.090942,323.293121 
	C809.258484,330.405090 802.050842,335.604218 793.406128,338.749359 
	C779.482483,343.815033 769.164001,339.453705 762.584167,325.635925 
	C758.185730,329.226074 753.971863,332.989288 749.431091,336.304596 
	C739.957092,343.221649 729.653992,347.161987 717.671143,344.066528 
	C707.267212,341.378906 701.117004,334.209167 697.134766,324.057709 
	C693.786621,327.565277 690.834351,330.830933 687.698608,333.909851 
	C679.374451,342.083252 669.588745,346.605011 657.656616,346.030884 
	C643.757690,345.362122 635.434998,337.261719 634.998352,323.333984 
	C634.559937,309.352997 639.431213,296.607788 644.571106,283.943726 
	C647.190430,277.490112 649.852295,271.040497 652.074524,264.447357 
	C652.714172,262.549561 652.677124,259.063843 651.550537,258.254211 
	C649.924866,257.086029 646.417603,256.723724 644.783203,257.739288 
	C640.786377,260.222809 636.250610,263.013275 633.966492,266.881622 
	C622.136902,286.916565 610.713928,307.196533 608.776184,331.205475 
	C607.971497,341.176514 606.986389,341.928925 596.712158,342.163269 
	C591.935913,342.272217 587.052856,341.963654 582.374878,341.045898 
	C576.402100,339.874054 571.488708,336.861572 570.001648,329.579803 
	C567.195740,332.067719 564.847717,334.282196 562.362183,336.329895 
	C553.070068,343.985352 542.251282,346.571442 530.571228,344.847778 
	C518.550598,343.073914 512.706665,334.940399 510.763306,323.549744 
	C499.252716,325.295105 487.952332,336.384796 486.087921,347.670990 
	C483.055054,366.030457 480.374084,384.456116 476.906799,402.732819 
	C474.797699,413.850159 469.551819,423.606842 461.258270,431.663391 
	C451.761078,440.889221 440.358643,443.129974 428.000610,440.699066 
	C414.295929,438.003235 405.467072,427.074982 403.846069,413.064484 
	C402.047546,397.519958 407.321808,384.346527 417.534088,373.327545 
	C427.922455,362.118591 439.283844,351.811432 450.678284,340.664642 
	C451.320374,339.860962 451.503357,339.501984 451.686310,339.143066 
	C451.044189,339.345734 450.402069,339.548431 449.759949,339.751099 
M750.160400,299.658264 
	C759.165894,285.116669 768.246277,270.620239 777.072021,255.970337 
	C778.058105,254.333572 777.597900,251.825500 777.808350,249.721481 
	C775.473145,249.816986 772.537964,249.028214 770.894531,250.143295 
	C752.178528,262.842682 738.234192,279.323578 732.314026,301.589386 
	C731.044189,306.365173 729.657043,311.675568 733.911072,316.433502 
	C741.267883,312.977173 744.921753,306.021454 750.160400,299.658264 
M438.008667,300.776917 
	C436.717010,306.080872 435.806793,311.359528 439.184052,317.672211 
	C457.011475,297.320374 468.422699,274.207306 479.483032,250.766479 
	C459.267700,261.764648 446.415192,278.916626 438.008667,300.776917 
M927.645203,296.153198 
	C930.002991,287.463226 932.360840,278.773254 934.718689,270.083282 
	C934.267944,269.769623 933.817261,269.455963 933.366577,269.142303 
	C925.566345,278.501068 917.352234,287.553406 910.115662,297.329346 
	C905.506226,303.556244 905.036682,311.288818 907.060669,318.818726 
	C907.609070,320.858948 909.328491,322.584412 910.510437,324.454315 
	C912.208984,323.257111 914.616455,322.436188 915.485413,320.798737 
	C919.653564,312.945038 923.405701,304.870514 927.645203,296.153198 
M442.496277,383.009216 
	C438.557770,389.671478 434.343048,396.191010 430.795746,403.055420 
	C428.986664,406.556122 429.005524,410.749084 432.639557,413.481628 
	C436.449951,416.346832 440.285553,414.698639 443.686340,412.359222 
	C445.282043,411.261536 447.142426,409.770844 447.699219,408.070648 
	C450.677887,398.975403 453.584229,389.832245 455.878815,380.548309 
	C456.889282,376.459961 453.326813,374.310242 449.679535,376.591736 
	C447.192566,378.147430 445.201294,380.495453 442.496277,383.009216 
z"/>
<path fill="#FFFFFF" opacity="1.000000" stroke="none" 
	d="
M206.992264,147.890778 
	C232.505875,155.833771 244.501755,174.575623 247.888336,199.142014 
	C253.211090,237.753647 239.923553,271.487366 217.896606,302.256683 
	C201.625061,324.986328 181.148315,342.982391 154.880402,353.495270 
	C139.124603,359.800995 122.736130,362.527649 106.134468,357.423492 
	C82.681259,350.212860 70.314468,332.915070 66.163132,309.668671 
	C61.259621,282.210327 66.855873,256.069885 78.919296,231.289978 
	C95.963928,196.277985 120.581535,168.548004 156.915619,152.627914 
	C172.885696,145.630463 189.464813,143.556763 206.992264,147.890778 
M118.413139,248.922287 
	C115.081924,256.326111 111.247429,263.550964 108.536270,271.175262 
	C104.366257,282.902161 100.911934,294.817139 103.846001,307.627380 
	C106.582947,319.576935 114.206306,325.142181 126.202728,323.197571 
	C137.106384,321.430054 145.993713,315.520691 154.198837,308.726318 
	C174.680969,291.765717 189.637573,270.619995 200.105835,246.248734 
	C205.123962,234.565964 208.873169,222.469543 208.695206,209.662415 
	C208.415298,189.516006 195.294418,181.212173 176.796158,189.064438 
	C174.663712,189.969635 172.551086,190.965942 170.548538,192.125900 
	C147.485367,205.485138 131.826736,225.677368 118.413139,248.922287 
z"/>
<path fill="#CECDCD" opacity="1.000000" stroke="none" 
	d="
M810.271362,346.157043 
	C812.397644,346.319092 815.013184,346.050781 815.916138,347.167358 
	C829.621948,364.115845 858.279480,363.727936 872.276489,351.129272 
	C875.935730,347.835571 878.516113,347.678162 882.513428,350.817017 
	C899.207336,363.925690 925.706238,364.503204 944.956482,352.354736 
	C966.955688,338.471497 978.504395,317.873657 981.925110,292.577881 
	C983.810730,278.634430 984.499573,264.533234 986.107300,250.546738 
	C987.238342,240.707581 992.164185,232.347824 997.853943,224.472687 
	C998.483459,223.601318 1000.187683,222.813492 1001.184998,223.015656 
	C1006.784912,224.150696 1012.320801,225.601196 1018.699585,227.142426 
	C1015.602600,232.326920 1013.408691,236.827271 1010.464539,240.767044 
	C1002.828064,250.986191 1001.077576,262.862885 999.993713,275.022461 
	C998.496094,291.824493 998.677673,308.873535 992.188599,324.920715 
	C982.904297,347.880310 968.364807,365.857635 943.954590,373.367493 
	C926.234070,378.819244 908.754272,377.422119 892.850037,366.843109 
	C889.519653,364.627808 887.297668,364.875610 884.015442,367.180298 
	C866.951477,379.161896 840.241028,378.527893 825.287903,362.721069 
	C824.730530,362.131836 824.025574,361.682159 823.337585,361.125580 
	C814.321228,366.202118 804.978027,370.537445 794.578918,369.808868 
	C787.952026,369.344513 781.340271,367.345612 774.954773,365.305450 
	C771.691528,364.262817 769.358032,363.933502 766.170593,365.739105 
	C746.744751,376.743408 727.256592,378.288788 707.841919,365.415131 
	C706.726257,364.675354 704.205200,364.669983 703.148438,365.437897 
	C690.666626,374.507568 676.486206,376.536163 661.778687,374.831512 
	C651.001648,373.582428 642.212219,367.812561 635.303955,359.440552 
	C634.901978,359.506348 634.426514,359.441711 634.290405,359.626740 
	C623.382568,374.452484 607.957031,372.710724 592.596252,370.892578 
	C587.865479,370.332550 569.674194,370.815918 564.876038,372.241699 
	C547.749512,377.331116 531.748352,375.886139 517.420044,364.295258 
	C516.935913,363.903595 516.233948,363.781342 514.873169,363.219696 
	C514.216614,367.724854 513.675232,371.905060 512.989990,376.061493 
	C509.951569,394.492401 509.279633,413.431000 501.852142,430.940125 
	C493.031464,451.733459 479.016083,466.978882 455.654205,470.505310 
	C433.998230,473.774292 412.973389,464.943146 401.827393,444.441803 
	C401.399841,443.655396 401.321167,442.679321 401.439148,443.113342 
	C408.370087,446.573669 415.479736,451.517029 423.360138,453.801422 
	C448.993835,461.232147 470.466797,448.165466 482.891998,426.248047 
	C490.420227,412.968628 492.856079,398.225311 494.994781,383.405731 
	C496.650055,371.936188 498.307007,360.466156 500.101715,349.018097 
	C500.366180,347.330994 501.397125,345.764069 502.263855,343.684631 
	C503.655090,344.682953 504.683472,345.191833 505.412811,345.978088 
	C519.967102,361.668060 537.704102,362.370087 556.188477,355.635345 
	C563.724121,352.889740 569.729553,351.585022 578.013489,354.238953 
	C586.664795,357.010620 596.846069,356.514008 606.119324,355.419525 
	C615.680786,354.291046 620.627197,346.826111 622.491394,336.722748 
	C624.633362,340.141052 626.302368,343.036865 628.193176,345.779846 
	C634.770935,355.322113 644.502075,358.975555 655.499756,359.978943 
	C668.494812,361.164642 680.243713,357.711182 690.489441,349.650452 
	C693.683289,347.137726 695.634949,347.417633 698.879883,350.045258 
	C714.037842,362.319946 735.816040,362.259064 754.227844,350.040009 
	C757.826538,347.651733 760.368103,347.070038 764.306396,349.528168 
	C776.531799,357.158844 789.281860,356.072205 801.973633,350.486633 
	C804.710754,349.282043 807.304382,347.751373 810.271362,346.157043 
z"/>
<path fill="#CECDCD" opacity="1.000000" stroke="none" 
	d="
M69.041885,349.949890 
	C77.046059,357.776642 85.539902,364.832306 96.188515,368.959991 
	C111.572296,374.923065 127.250847,375.415100 143.132294,371.798859 
	C166.026031,366.585846 185.825119,355.373016 202.909897,339.498535 
	C211.498749,331.518127 219.340607,322.733795 227.574677,314.256989 
	C247.816727,323.841644 253.812027,324.334320 267.000946,317.407867 
	C269.765411,322.972687 272.528687,328.542236 275.485687,334.502289 
	C270.803497,337.607544 265.088593,337.618103 259.665283,336.762543 
	C253.341995,335.765015 247.231735,333.475037 240.955002,332.078644 
	C239.605698,331.778442 237.328888,332.415131 236.511398,333.441925 
	C224.582108,348.425934 210.287262,360.757843 194.146103,370.880890 
	C173.501312,383.828430 151.039612,391.004944 126.466736,388.885803 
	C102.027863,386.778229 83.335014,374.642792 70.117905,354.043060 
	C69.510185,353.095917 69.307915,351.888611 68.953033,350.404846 
	C68.989273,350.007233 69.041885,349.949890 69.041885,349.949890 
z"/>
<path fill="#060606" opacity="1.000000" stroke="none" 
	d="
M605.141113,145.067993 
	C605.137329,151.887711 605.106506,158.218872 605.140869,164.549683 
	C605.159119,167.922623 603.799622,170.035355 600.208984,170.028641 
	C596.687195,170.022049 595.067444,167.858566 595.053833,164.611435 
	C594.981812,147.451385 594.866516,130.288239 595.193420,113.134308 
	C595.231384,111.140450 597.691467,107.877617 599.422180,107.592468 
	C601.237061,107.293457 604.449463,109.381264 605.458130,111.274559 
	C612.013489,123.579605 618.131042,136.117752 624.404480,148.573273 
	C624.998718,149.753189 625.679138,150.889725 626.643799,152.632095 
	C627.564880,151.038879 628.326233,149.868011 628.946472,148.626678 
	C634.959290,136.593063 640.968384,124.557503 646.929871,112.498413 
	C648.379700,109.565727 649.865479,106.457863 653.798157,107.292381 
	C658.005371,108.185173 658.030273,111.718773 658.015747,115.220421 
	C657.950623,130.881165 657.987671,146.542328 657.983765,162.203339 
	C657.983459,163.369141 658.425598,164.946167 657.841187,165.619949 
	C656.371521,167.314209 654.542114,169.518890 652.643738,169.747223 
	C651.235718,169.916580 648.266968,167.431702 648.112061,165.913025 
	C647.438965,159.315613 647.512085,152.639572 647.376709,145.990829 
	C647.305664,142.505020 647.364136,139.016556 647.364136,134.437988 
	C646.238342,136.051941 645.564819,136.796432 645.138672,137.662643 
	C640.742920,146.597763 636.539978,155.633102 631.898987,164.437943 
	C630.899292,166.334549 628.351013,168.569092 626.530823,168.556244 
	C624.690613,168.543243 622.172607,166.305115 621.156189,164.399261 
	C616.013367,154.756027 611.262939,144.903503 605.141113,135.238007 
	C605.141113,138.351776 605.141113,141.465546 605.141113,145.067993 
z"/>
<path fill="#CECDCD" opacity="1.000000" stroke="none" 
	d="
M352.709045,358.688843 
	C369.166534,360.730896 383.847626,357.514160 396.885651,347.576324 
	C397.914276,346.792297 400.421600,346.802582 401.563629,347.521271 
	C405.471283,349.980347 409.076294,352.920319 413.922455,356.510956 
	C409.897003,360.223175 406.639374,364.321259 402.447479,366.901581 
	C385.267090,377.477051 361.708405,378.716003 344.830505,365.521637 
	C339.297333,361.196075 334.960602,360.903198 328.497711,361.586395 
	C314.440643,363.072449 300.049255,363.631897 288.491730,352.720337 
	C283.939941,348.422913 279.894928,343.826538 278.286102,338.374146 
	C284.993286,341.227173 291.528320,345.723755 298.492462,346.534485 
	C307.189697,347.546936 316.287750,345.864868 325.112122,344.628082 
	C328.167206,344.199890 330.169891,344.324005 332.085571,346.629669 
	C337.388153,353.011780 344.223297,356.836517 352.709045,358.688843 
z"/>
<path fill="#070707" opacity="1.000000" stroke="none" 
	d="
M701.693848,118.745872 
	C714.181824,104.412788 735.143555,102.348557 748.859558,113.845291 
	C762.078857,124.925705 763.567139,146.081009 752.113220,160.096085 
	C744.267029,169.696762 730.100342,173.438965 717.154907,169.330475 
	C704.901428,165.441605 697.052307,155.376434 695.819214,142.638214 
	C694.986206,134.032333 696.474670,126.153679 701.693848,118.745872 
M745.247009,125.419907 
	C744.484802,124.544403 743.781860,123.607681 742.950928,122.803108 
	C736.270569,116.335320 725.609314,114.735138 717.593750,118.965393 
	C708.923401,123.541199 704.430664,132.818787 706.035828,142.832809 
	C707.456909,151.698364 714.793823,159.162201 723.948181,160.539154 
	C732.469238,161.820877 739.887939,159.324615 744.983826,152.191986 
	C750.996277,143.776550 750.763184,134.877502 745.247009,125.419907 
z"/>
<path fill="#060606" opacity="1.000000" stroke="none" 
	d="
M510.566986,167.543777 
	C497.128723,160.030502 491.548645,147.891739 493.958069,131.901627 
	C495.772430,119.860382 505.707520,109.728996 518.245911,107.133881 
	C532.166870,104.252617 545.988831,109.888664 552.957764,121.287979 
	C559.993591,132.796707 559.064758,148.568787 550.723877,159.220459 
	C542.774658,169.371994 528.284424,173.468018 515.091919,169.272873 
	C513.671326,168.821136 512.286316,168.257858 510.566986,167.543777 
M506.178406,127.972321 
	C501.727295,138.237289 503.324860,148.238205 510.504578,155.053757 
	C516.973694,161.194763 527.501892,162.660919 535.539551,158.540115 
	C543.993774,154.205750 548.186584,145.651062 547.027832,135.100571 
	C546.117615,126.813667 539.338074,119.200325 531.104736,117.219223 
	C521.280090,114.855232 512.479736,118.487457 506.178406,127.972321 
z"/>
<path fill="#CDCCCC" opacity="1.000000" stroke="none" 
	d="
M931.045898,155.946045 
	C936.546204,159.435883 942.207886,162.711105 947.398010,166.613480 
	C948.331604,167.315399 947.686462,170.699173 947.153931,172.678955 
	C941.797302,192.593369 932.241089,210.679077 921.925110,228.309784 
	C917.622192,235.663879 911.689758,242.074600 906.366638,248.810211 
	C905.628174,249.744614 904.155212,250.543076 902.979309,250.606491 
	C898.921692,250.825317 894.845032,250.690765 889.885132,250.690765 
	C890.807251,248.661743 891.514221,246.938309 892.354553,245.282532 
	C902.733398,224.833023 913.341431,204.495880 923.407654,183.893890 
	C926.804688,176.941452 928.947693,169.359665 931.411255,161.981186 
	C931.930725,160.425583 931.344299,158.500748 931.135864,156.369446 
	C931.004272,155.992874 931.045898,155.946060 931.045898,155.946045 
z"/>
<path fill="#090909" opacity="1.000000" stroke="none" 
	d="
M438.265503,147.717133 
	C435.573364,147.537903 433.287048,147.537903 430.334503,147.537903 
	C430.334503,153.046921 430.268463,158.307785 430.357361,163.566040 
	C430.418274,167.167557 429.528503,169.995255 425.313385,170.037994 
	C421.112549,170.080627 420.152252,167.344910 420.165741,163.692062 
	C420.226685,147.205231 420.157867,130.717941 420.213654,114.231094 
	C420.233124,108.474854 421.551422,107.151627 427.324585,107.154213 
	C432.639221,107.156593 438.000763,107.042664 443.257721,107.676231 
	C451.884552,108.715935 457.712830,113.734001 459.654907,122.194214 
	C461.619568,130.752808 459.672668,138.384552 451.994507,143.750381 
	C451.464111,144.121063 450.997894,144.583542 450.290131,145.182495 
	C453.712494,150.732773 457.050903,156.210861 460.457733,161.646088 
	C462.278870,164.551544 462.784424,167.405243 459.470642,169.393036 
	C456.335510,171.273666 453.617584,169.869110 451.764740,167.098694 
	C448.535339,162.270035 445.551971,157.277405 442.360199,152.422729 
	C441.296478,150.804855 439.910187,149.399078 438.265503,147.717133 
M436.340332,137.213028 
	C438.164246,137.107895 440.021332,137.185684 441.805725,136.862457 
	C446.671509,135.981110 449.949829,132.250397 450.111694,127.656715 
	C450.272827,123.083405 447.338104,118.986397 442.454315,118.019180 
	C438.698486,117.275345 434.776703,117.369484 430.778503,117.080116 
	C430.778503,124.278313 430.778503,130.514542 430.778503,137.209549 
	C432.454285,137.209549 433.916748,137.209549 436.340332,137.213028 
z"/>
<path fill="#090909" opacity="1.000000" stroke="none" 
	d="
M383.585907,118.661545 
	C390.298523,138.427338 380.448517,149.025970 354.934692,149.540512 
	C354.934692,153.985672 355.032349,158.449860 354.904205,162.907562 
	C354.799072,166.564941 354.246857,170.248352 349.324951,170.017120 
	C344.897827,169.809143 344.216888,166.567398 344.222412,162.922684 
	C344.246735,146.780624 344.206604,130.638474 344.248047,114.496483 
	C344.262360,108.918190 345.867523,107.161339 351.257080,107.169769 
	C357.059692,107.178841 362.892670,107.209877 368.656128,107.790199 
	C375.415222,108.470787 380.318970,112.240074 383.585907,118.661545 
M363.118195,117.192726 
	C360.519196,117.192726 357.920197,117.192726 355.363342,117.192726 
	C355.363342,124.955338 355.363342,131.992783 355.363342,139.144730 
	C358.714569,139.144730 361.703613,139.127151 364.692413,139.148987 
	C368.874420,139.179535 372.875122,137.669678 373.862427,133.724152 
	C374.780548,130.055099 374.808136,125.253288 373.091522,122.120880 
	C371.702057,119.585365 367.137817,118.789665 363.118195,117.192726 
z"/>
<path fill="#CECDCD" opacity="1.000000" stroke="none" 
	d="
M236.047867,146.944214 
	C242.302078,151.110046 249.344360,154.466080 254.638657,159.618301 
	C264.258636,168.980103 270.353333,180.762390 274.477417,193.635773 
	C276.094421,198.683212 275.169464,201.749344 270.667816,204.227081 
	C268.374329,205.489456 266.351562,207.243744 263.434875,209.326691 
	C261.878021,185.066849 254.470245,163.880997 236.127777,147.311935 
	C236.006256,146.990891 236.047867,146.944214 236.047867,146.944214 
z"/>
<path fill="#060606" opacity="1.000000" stroke="none" 
	d="
M405.224976,217.223618 
	C404.257751,221.536041 401.402985,223.142670 397.800812,222.743774 
	C392.554840,222.162857 387.333130,221.173874 382.178375,220.014893 
	C377.648895,218.996536 375.967957,215.799698 376.884064,210.936157 
	C377.731628,206.436478 380.288635,204.526031 385.076508,205.131332 
	C389.501068,205.690674 393.907837,206.421295 398.298981,207.207520 
	C404.538452,208.324677 405.651276,209.926865 405.224976,217.223618 
z"/>
<path fill="#070707" opacity="1.000000" stroke="none" 
	d="
M560.072937,219.003693 
	C551.768738,217.161835 550.101196,214.700836 551.757324,208.353104 
	C552.827148,204.252563 555.733887,202.956787 559.169128,203.266312 
	C564.260803,203.725082 569.338440,204.709442 574.322510,205.890335 
	C579.477051,207.111618 581.052917,209.968170 580.081421,215.131958 
	C579.259094,219.502823 576.252258,221.569122 571.256287,220.915543 
	C567.647034,220.443359 564.076050,219.679428 560.072937,219.003693 
z"/>
<path fill="#CECDCD" opacity="1.000000" stroke="none" 
	d="
M235.983185,147.011993 
	C235.832001,146.845474 235.703873,146.657852 235.575729,146.470230 
	C235.696365,146.515579 235.817001,146.560928 235.992752,146.775238 
	C236.047867,146.944214 236.006256,146.990891 235.983185,147.011993 
z"/>
<path fill="#CECDCD" opacity="1.000000" stroke="none" 
	d="
M67.959442,348.842377 
	C67.876335,348.840302 67.752678,348.680573 67.629013,348.520874 
	C67.725639,348.575500 67.822266,348.630127 67.959442,348.842377 
z"/>
<path fill="#CECDCD" opacity="1.000000" stroke="none" 
	d="
M68.074188,349.240204 
	C68.279243,349.163910 68.558472,349.327820 68.939789,349.720825 
	C69.041885,349.949890 68.989273,350.007233 68.958961,350.034424 
	C68.668549,349.867859 68.408447,349.674164 68.074188,349.240204 
z"/>
<path fill="#CDCCCC" opacity="1.000000" stroke="none" 
	d="
M930.981201,156.013962 
	C930.829102,155.852448 930.700134,155.669846 930.571167,155.487259 
	C930.691284,155.529755 930.811340,155.572250 930.988647,155.780396 
	C931.045898,155.946060 931.004272,155.992874 930.981201,156.013962 
z"/>
<path fill="#FBFBFB" opacity="1.000000" stroke="none" 
	d="
M749.953613,299.948914 
	C744.921753,306.021454 741.267883,312.977173 733.911072,316.433502 
	C729.657043,311.675568 731.044189,306.365173 732.314026,301.589386 
	C738.234192,279.323578 752.178528,262.842682 770.894531,250.143295 
	C772.537964,249.028214 775.473145,249.816986 777.808350,249.721481 
	C777.597900,251.825500 778.058105,254.333572 777.072021,255.970337 
	C768.246277,270.620239 759.165894,285.116669 749.953613,299.948914 
z"/>
<path fill="#FAFAFA" opacity="1.000000" stroke="none" 
	d="
M438.087921,300.370972 
	C446.415192,278.916626 459.267700,261.764648 479.483032,250.766479 
	C468.422699,274.207306 457.011475,297.320374 439.184052,317.672211 
	C435.806793,311.359528 436.717010,306.080872 438.087921,300.370972 
z"/>
<path fill="#F9F9F9" opacity="1.000000" stroke="none" 
	d="
M927.475342,296.513794 
	C923.405701,304.870514 919.653564,312.945038 915.485413,320.798737 
	C914.616455,322.436188 912.208984,323.257111 910.510376,324.454346 
	C909.328491,322.584412 907.609070,320.858948 907.060669,318.818726 
	C905.036682,311.288818 905.506226,303.556244 910.115662,297.329346 
	C917.352234,287.553406 925.566345,278.501068 933.366577,269.142303 
	C933.817261,269.455963 934.267944,269.769623 934.718689,270.083282 
	C932.360840,278.773254 930.002991,287.463226 927.475342,296.513794 
z"/>
<path fill="#F9F9F9" opacity="1.000000" stroke="none" 
	d="
M442.742310,382.749207 
	C445.201294,380.495453 447.192566,378.147430 449.679535,376.591736 
	C453.326813,374.310242 456.889282,376.459961 455.878815,380.548309 
	C453.584229,389.832245 450.677887,398.975403 447.699219,408.070648 
	C447.142426,409.770844 445.282043,411.261536 443.686340,412.359222 
	C440.285553,414.698639 436.449951,416.346832 432.639557,413.481628 
	C429.005524,410.749084 428.986664,406.556122 430.795746,403.055420 
	C434.343048,396.191010 438.557770,389.671478 442.742310,382.749207 
z"/>
<path fill="#FFFFFF" opacity="1.000000" stroke="none" 
	d="
M449.977844,339.967651 
	C450.402069,339.548431 451.044189,339.345734 451.686310,339.143066 
	C451.503357,339.501984 451.320374,339.860962 450.891907,340.410767 
	C450.496185,340.462494 450.345978,340.323334 449.977844,339.967651 
z"/>
<path fill="#FDFDFD" opacity="1.000000" stroke="none" 
	d="
M118.616196,248.613403 
	C131.826736,225.677368 147.485367,205.485138 170.548538,192.125900 
	C172.551086,190.965942 174.663712,189.969635 176.796158,189.064438 
	C195.294418,181.212173 208.415298,189.516006 208.695206,209.662415 
	C208.873169,222.469543 205.123962,234.565964 200.105835,246.248734 
	C189.637573,270.619995 174.680969,291.765717 154.198837,308.726318 
	C145.993713,315.520691 137.106384,321.430054 126.202728,323.197571 
	C114.206306,325.142181 106.582947,319.576935 103.846001,307.627380 
	C100.911934,294.817139 104.366257,282.902161 108.536270,271.175262 
	C111.247429,263.550964 115.081924,256.326111 118.616196,248.613403 
M154.470169,222.986435 
	C142.642548,235.768265 132.599777,249.849045 125.781700,265.871429 
	C120.753174,277.688385 115.435387,289.689850 117.876869,303.232178 
	C118.380630,306.026398 117.992661,308.989868 122.234299,309.103149 
	C127.879333,309.253937 132.281158,307.119751 132.940735,303.040222 
	C134.988693,290.372803 140.048019,278.832520 146.200394,267.769531 
	C156.581543,249.102448 169.600449,232.544540 187.866150,221.027039 
	C192.923248,217.838242 194.495377,214.558411 194.168564,209.030090 
	C193.661072,200.445145 192.393112,199.298691 184.350571,201.728241 
	C172.249466,205.383835 163.530533,213.816864 154.470169,222.986435 
z"/>
<path fill="#FCFCFC" opacity="1.000000" stroke="none" 
	d="
M745.478027,125.709000 
	C750.763184,134.877502 750.996277,143.776550 744.983826,152.191986 
	C739.887939,159.324615 732.469238,161.820877 723.948181,160.539154 
	C714.793823,159.162201 707.456909,151.698364 706.035828,142.832809 
	C704.430664,132.818787 708.923401,123.541199 717.593750,118.965393 
	C725.609314,114.735138 736.270569,116.335320 742.950928,122.803108 
	C743.781860,123.607681 744.484802,124.544403 745.478027,125.709000 
z"/>
<path fill="#FCFCFC" opacity="1.000000" stroke="none" 
	d="
M506.388062,127.653252 
	C512.479736,118.487457 521.280090,114.855232 531.104736,117.219223 
	C539.338074,119.200325 546.117615,126.813667 547.027832,135.100571 
	C548.186584,145.651062 543.993774,154.205750 535.539551,158.540115 
	C527.501892,162.660919 516.973694,161.194763 510.504578,155.053757 
	C503.324860,148.238205 501.727295,138.237289 506.388062,127.653252 
z"/>
<path fill="#FAFAFA" opacity="1.000000" stroke="none" 
	d="
M435.859741,137.211288 
	C433.916748,137.209549 432.454285,137.209549 430.778503,137.209549 
	C430.778503,130.514542 430.778503,124.278313 430.778503,117.080116 
	C434.776703,117.369484 438.698486,117.275345 442.454315,118.019180 
	C447.338104,118.986397 450.272827,123.083405 450.111694,127.656715 
	C449.949829,132.250397 446.671509,135.981110 441.805725,136.862457 
	C440.021332,137.185684 438.164246,137.107895 435.859741,137.211288 
z"/>
<path fill="#FBFBFB" opacity="1.000000" stroke="none" 
	d="
M363.549988,117.207489 
	C367.137817,118.789665 371.702057,119.585365 373.091522,122.120880 
	C374.808136,125.253288 374.780548,130.055099 373.862427,133.724152 
	C372.875122,137.669678 368.874420,139.179535 364.692413,139.148987 
	C361.703613,139.127151 358.714569,139.144730 355.363342,139.144730 
	C355.363342,131.992783 355.363342,124.955338 355.363342,117.192726 
	C357.920197,117.192726 360.519196,117.192726 363.549988,117.207489 
z"/>
<path fill="#CDCCCC" opacity="1.000000" stroke="none" 
	d="
M154.721283,222.734314 
	C163.530533,213.816864 172.249466,205.383835 184.350571,201.728241 
	C192.393112,199.298691 193.661072,200.445145 194.168564,209.030090 
	C194.495377,214.558411 192.923248,217.838242 187.866150,221.027039 
	C169.600449,232.544540 156.581543,249.102448 146.200394,267.769531 
	C140.048019,278.832520 134.988693,290.372803 132.940735,303.040222 
	C132.281158,307.119751 127.879333,309.253937 122.234299,309.103149 
	C117.992661,308.989868 118.380630,306.026398 117.876869,303.232178 
	C115.435387,289.689850 120.753174,277.688385 125.781700,265.871429 
	C132.599777,249.849045 142.642548,235.768265 154.721283,222.734314 
z"/>
</svg>